<mxfile host="app.diagrams.net" modified="2021-04-29T03:04:06.066Z" agent="5.0 (Windows NT 10.0; Win64; x64) AppleWebKit/537.36 (KHTML, like Gecko) Chrome/89.0.4389.82 Safari/537.36" etag="Uk-4fomY8muEcMviMJok" version="14.6.6" type="github">
  <diagram name="Page-1" id="9f46799a-70d6-7492-0946-bef42562c5a5">
    <mxGraphModel dx="2285" dy="662" grid="1" gridSize="10" guides="1" tooltips="1" connect="1" arrows="1" fold="1" page="1" pageScale="1" pageWidth="1100" pageHeight="850" background="#ffffff" math="0" shadow="0">
      <root>
        <mxCell id="0" />
        <mxCell id="1" parent="0" />
        <mxCell id="9K-uHqhrfBbbfJ-RC3fX-18" value="" style="edgeStyle=orthogonalEdgeStyle;rounded=0;orthogonalLoop=1;jettySize=auto;html=1;" edge="1" parent="1" source="9K-uHqhrfBbbfJ-RC3fX-1" target="9K-uHqhrfBbbfJ-RC3fX-17">
          <mxGeometry relative="1" as="geometry" />
        </mxCell>
        <mxCell id="9K-uHqhrfBbbfJ-RC3fX-1" value="登陆" style="strokeWidth=2;html=1;shape=mxgraph.flowchart.start_1;whiteSpace=wrap;" vertex="1" parent="1">
          <mxGeometry x="520" y="40" width="100" height="60" as="geometry" />
        </mxCell>
        <mxCell id="9K-uHqhrfBbbfJ-RC3fX-20" value="" style="edgeStyle=orthogonalEdgeStyle;rounded=0;orthogonalLoop=1;jettySize=auto;html=1;" edge="1" parent="1" source="9K-uHqhrfBbbfJ-RC3fX-17" target="9K-uHqhrfBbbfJ-RC3fX-19">
          <mxGeometry relative="1" as="geometry" />
        </mxCell>
        <mxCell id="9K-uHqhrfBbbfJ-RC3fX-17" value="输入账号、&lt;br&gt;密码验证登录" style="shape=trapezoid;perimeter=trapezoidPerimeter;whiteSpace=wrap;html=1;fixedSize=1;strokeWidth=2;" vertex="1" parent="1">
          <mxGeometry x="510" y="180" width="120" height="60" as="geometry" />
        </mxCell>
        <mxCell id="9K-uHqhrfBbbfJ-RC3fX-28" style="edgeStyle=orthogonalEdgeStyle;rounded=0;orthogonalLoop=1;jettySize=auto;html=1;exitX=1;exitY=0.5;exitDx=0;exitDy=0;" edge="1" parent="1" source="9K-uHqhrfBbbfJ-RC3fX-19">
          <mxGeometry relative="1" as="geometry">
            <mxPoint x="570" y="140" as="targetPoint" />
            <Array as="points">
              <mxPoint x="770" y="350" />
              <mxPoint x="770" y="140" />
            </Array>
          </mxGeometry>
        </mxCell>
        <mxCell id="9K-uHqhrfBbbfJ-RC3fX-19" value="验证账号、&lt;br&gt;密码是否正确" style="rhombus;whiteSpace=wrap;html=1;strokeWidth=2;" vertex="1" parent="1">
          <mxGeometry x="515" y="310" width="110" height="80" as="geometry" />
        </mxCell>
        <mxCell id="9K-uHqhrfBbbfJ-RC3fX-31" value="否" style="text;html=1;align=center;verticalAlign=middle;resizable=0;points=[];autosize=1;strokeColor=none;" vertex="1" parent="1">
          <mxGeometry x="680" y="330" width="30" height="20" as="geometry" />
        </mxCell>
        <mxCell id="9K-uHqhrfBbbfJ-RC3fX-32" value="" style="endArrow=none;html=1;exitX=0.5;exitY=1;exitDx=0;exitDy=0;" edge="1" parent="1" source="9K-uHqhrfBbbfJ-RC3fX-19">
          <mxGeometry width="50" height="50" relative="1" as="geometry">
            <mxPoint x="740" y="480" as="sourcePoint" />
            <mxPoint x="570" y="480" as="targetPoint" />
          </mxGeometry>
        </mxCell>
        <mxCell id="9K-uHqhrfBbbfJ-RC3fX-33" value="是" style="text;html=1;align=center;verticalAlign=middle;resizable=0;points=[];autosize=1;strokeColor=none;" vertex="1" parent="1">
          <mxGeometry x="543" y="420" width="30" height="20" as="geometry" />
        </mxCell>
        <mxCell id="9K-uHqhrfBbbfJ-RC3fX-34" value="" style="endArrow=none;html=1;" edge="1" parent="1">
          <mxGeometry width="50" height="50" relative="1" as="geometry">
            <mxPoint x="-650" y="480" as="sourcePoint" />
            <mxPoint x="1720" y="480" as="targetPoint" />
          </mxGeometry>
        </mxCell>
        <mxCell id="9K-uHqhrfBbbfJ-RC3fX-35" value="工作台" style="whiteSpace=wrap;html=1;" vertex="1" parent="1">
          <mxGeometry x="-707.5" y="560" width="120" height="60" as="geometry" />
        </mxCell>
        <mxCell id="9K-uHqhrfBbbfJ-RC3fX-37" value="预约管理" style="whiteSpace=wrap;html=1;" vertex="1" parent="1">
          <mxGeometry x="470" y="560" width="120" height="60" as="geometry" />
        </mxCell>
        <mxCell id="9K-uHqhrfBbbfJ-RC3fX-38" value="" style="endArrow=classic;html=1;entryX=0.5;entryY=0;entryDx=0;entryDy=0;startArrow=none;" edge="1" parent="1" source="9K-uHqhrfBbbfJ-RC3fX-85" target="9K-uHqhrfBbbfJ-RC3fX-37">
          <mxGeometry width="50" height="50" relative="1" as="geometry">
            <mxPoint x="530" y="480" as="sourcePoint" />
            <mxPoint x="550" y="530" as="targetPoint" />
          </mxGeometry>
        </mxCell>
        <mxCell id="9K-uHqhrfBbbfJ-RC3fX-41" value="" style="endArrow=classic;html=1;entryX=0.5;entryY=0;entryDx=0;entryDy=0;" edge="1" parent="1" target="9K-uHqhrfBbbfJ-RC3fX-35">
          <mxGeometry width="50" height="50" relative="1" as="geometry">
            <mxPoint x="-647.5" y="480" as="sourcePoint" />
            <mxPoint x="-617.5" y="490" as="targetPoint" />
          </mxGeometry>
        </mxCell>
        <mxCell id="9K-uHqhrfBbbfJ-RC3fX-92" style="edgeStyle=orthogonalEdgeStyle;rounded=0;orthogonalLoop=1;jettySize=auto;html=1;" edge="1" parent="1" source="9K-uHqhrfBbbfJ-RC3fX-42">
          <mxGeometry relative="1" as="geometry">
            <mxPoint x="1720" y="690" as="targetPoint" />
          </mxGeometry>
        </mxCell>
        <mxCell id="9K-uHqhrfBbbfJ-RC3fX-42" value="访客管理" style="whiteSpace=wrap;html=1;" vertex="1" parent="1">
          <mxGeometry x="1660" y="580" width="120" height="60" as="geometry" />
        </mxCell>
        <mxCell id="9K-uHqhrfBbbfJ-RC3fX-43" value="" style="endArrow=classic;html=1;entryX=0.5;entryY=0;entryDx=0;entryDy=0;" edge="1" parent="1" target="9K-uHqhrfBbbfJ-RC3fX-42">
          <mxGeometry width="50" height="50" relative="1" as="geometry">
            <mxPoint x="1720" y="480" as="sourcePoint" />
            <mxPoint x="1740" y="550" as="targetPoint" />
          </mxGeometry>
        </mxCell>
        <mxCell id="9K-uHqhrfBbbfJ-RC3fX-44" value="" style="endArrow=none;html=1;" edge="1" parent="1">
          <mxGeometry width="50" height="50" relative="1" as="geometry">
            <mxPoint x="-890" y="710" as="sourcePoint" />
            <mxPoint x="-407.5" y="710" as="targetPoint" />
          </mxGeometry>
        </mxCell>
        <mxCell id="9K-uHqhrfBbbfJ-RC3fX-45" value="预约提醒" style="whiteSpace=wrap;html=1;" vertex="1" parent="1">
          <mxGeometry x="-950" y="780" width="120" height="60" as="geometry" />
        </mxCell>
        <mxCell id="9K-uHqhrfBbbfJ-RC3fX-46" value="预约审批" style="whiteSpace=wrap;html=1;" vertex="1" parent="1">
          <mxGeometry x="-790" y="780" width="120" height="60" as="geometry" />
        </mxCell>
        <mxCell id="9K-uHqhrfBbbfJ-RC3fX-47" value="访客数据展示" style="whiteSpace=wrap;html=1;" vertex="1" parent="1">
          <mxGeometry x="-465" y="780" width="120" height="60" as="geometry" />
        </mxCell>
        <mxCell id="9K-uHqhrfBbbfJ-RC3fX-48" value="预约数据展示" style="whiteSpace=wrap;html=1;" vertex="1" parent="1">
          <mxGeometry x="-630" y="780" width="120" height="60" as="geometry" />
        </mxCell>
        <mxCell id="9K-uHqhrfBbbfJ-RC3fX-49" value="" style="endArrow=classic;html=1;entryX=0.5;entryY=0;entryDx=0;entryDy=0;" edge="1" parent="1">
          <mxGeometry width="50" height="50" relative="1" as="geometry">
            <mxPoint x="-406.5" y="710" as="sourcePoint" />
            <mxPoint x="-407" y="780" as="targetPoint" />
          </mxGeometry>
        </mxCell>
        <mxCell id="9K-uHqhrfBbbfJ-RC3fX-50" value="" style="endArrow=classic;html=1;entryX=0.5;entryY=0;entryDx=0;entryDy=0;" edge="1" parent="1" target="9K-uHqhrfBbbfJ-RC3fX-48">
          <mxGeometry width="50" height="50" relative="1" as="geometry">
            <mxPoint x="-567.5" y="710" as="sourcePoint" />
            <mxPoint x="-517.5" y="660" as="targetPoint" />
          </mxGeometry>
        </mxCell>
        <mxCell id="9K-uHqhrfBbbfJ-RC3fX-51" value="" style="endArrow=classic;html=1;" edge="1" parent="1" target="9K-uHqhrfBbbfJ-RC3fX-46">
          <mxGeometry width="50" height="50" relative="1" as="geometry">
            <mxPoint x="-727.5" y="710" as="sourcePoint" />
            <mxPoint x="-677.5" y="660" as="targetPoint" />
          </mxGeometry>
        </mxCell>
        <mxCell id="9K-uHqhrfBbbfJ-RC3fX-52" value="" style="endArrow=classic;html=1;" edge="1" parent="1" target="9K-uHqhrfBbbfJ-RC3fX-45">
          <mxGeometry width="50" height="50" relative="1" as="geometry">
            <mxPoint x="-887.5" y="710" as="sourcePoint" />
            <mxPoint x="-837.5" y="660" as="targetPoint" />
          </mxGeometry>
        </mxCell>
        <mxCell id="9K-uHqhrfBbbfJ-RC3fX-53" value="" style="endArrow=none;html=1;" edge="1" parent="1">
          <mxGeometry width="50" height="50" relative="1" as="geometry">
            <mxPoint x="-647.5" y="620" as="sourcePoint" />
            <mxPoint x="-647.5" y="710" as="targetPoint" />
          </mxGeometry>
        </mxCell>
        <mxCell id="9K-uHqhrfBbbfJ-RC3fX-87" style="edgeStyle=orthogonalEdgeStyle;rounded=0;orthogonalLoop=1;jettySize=auto;html=1;" edge="1" parent="1" source="9K-uHqhrfBbbfJ-RC3fX-85">
          <mxGeometry relative="1" as="geometry">
            <mxPoint x="340" y="700" as="targetPoint" />
            <Array as="points">
              <mxPoint x="530" y="650" />
              <mxPoint x="340" y="650" />
            </Array>
          </mxGeometry>
        </mxCell>
        <mxCell id="9K-uHqhrfBbbfJ-RC3fX-91" style="edgeStyle=orthogonalEdgeStyle;rounded=0;orthogonalLoop=1;jettySize=auto;html=1;exitX=0.5;exitY=1;exitDx=0;exitDy=0;entryX=0.5;entryY=0;entryDx=0;entryDy=0;" edge="1" parent="1" source="9K-uHqhrfBbbfJ-RC3fX-85" target="9K-uHqhrfBbbfJ-RC3fX-90">
          <mxGeometry relative="1" as="geometry">
            <Array as="points">
              <mxPoint x="530" y="650" />
              <mxPoint x="650" y="650" />
            </Array>
          </mxGeometry>
        </mxCell>
        <mxCell id="9K-uHqhrfBbbfJ-RC3fX-116" value="" style="edgeStyle=orthogonalEdgeStyle;rounded=0;orthogonalLoop=1;jettySize=auto;html=1;" edge="1" parent="1" source="9K-uHqhrfBbbfJ-RC3fX-85" target="9K-uHqhrfBbbfJ-RC3fX-115">
          <mxGeometry relative="1" as="geometry" />
        </mxCell>
        <mxCell id="9K-uHqhrfBbbfJ-RC3fX-117" style="edgeStyle=orthogonalEdgeStyle;rounded=0;orthogonalLoop=1;jettySize=auto;html=1;" edge="1" parent="1" source="9K-uHqhrfBbbfJ-RC3fX-85">
          <mxGeometry relative="1" as="geometry">
            <mxPoint x="960" y="669.9999999999998" as="targetPoint" />
          </mxGeometry>
        </mxCell>
        <mxCell id="9K-uHqhrfBbbfJ-RC3fX-85" value="预约管理" style="whiteSpace=wrap;html=1;" vertex="1" parent="1">
          <mxGeometry x="470" y="560" width="120" height="60" as="geometry" />
        </mxCell>
        <mxCell id="9K-uHqhrfBbbfJ-RC3fX-86" value="" style="endArrow=none;html=1;entryX=0.5;entryY=0;entryDx=0;entryDy=0;" edge="1" parent="1" target="9K-uHqhrfBbbfJ-RC3fX-85">
          <mxGeometry width="50" height="50" relative="1" as="geometry">
            <mxPoint x="530" y="480" as="sourcePoint" />
            <mxPoint x="530" y="560" as="targetPoint" />
          </mxGeometry>
        </mxCell>
        <mxCell id="9K-uHqhrfBbbfJ-RC3fX-105" style="edgeStyle=orthogonalEdgeStyle;rounded=0;orthogonalLoop=1;jettySize=auto;html=1;entryX=0.5;entryY=0;entryDx=0;entryDy=0;" edge="1" parent="1" source="9K-uHqhrfBbbfJ-RC3fX-88" target="9K-uHqhrfBbbfJ-RC3fX-101">
          <mxGeometry relative="1" as="geometry" />
        </mxCell>
        <mxCell id="9K-uHqhrfBbbfJ-RC3fX-106" style="edgeStyle=orthogonalEdgeStyle;rounded=0;orthogonalLoop=1;jettySize=auto;html=1;entryX=0.5;entryY=0;entryDx=0;entryDy=0;" edge="1" parent="1" source="9K-uHqhrfBbbfJ-RC3fX-88" target="9K-uHqhrfBbbfJ-RC3fX-104">
          <mxGeometry relative="1" as="geometry" />
        </mxCell>
        <mxCell id="9K-uHqhrfBbbfJ-RC3fX-107" style="edgeStyle=orthogonalEdgeStyle;rounded=0;orthogonalLoop=1;jettySize=auto;html=1;entryX=0.5;entryY=0;entryDx=0;entryDy=0;" edge="1" parent="1" source="9K-uHqhrfBbbfJ-RC3fX-88" target="9K-uHqhrfBbbfJ-RC3fX-102">
          <mxGeometry relative="1" as="geometry" />
        </mxCell>
        <mxCell id="9K-uHqhrfBbbfJ-RC3fX-88" value="预约审批" style="whiteSpace=wrap;html=1;" vertex="1" parent="1">
          <mxGeometry x="280" y="690" width="120" height="60" as="geometry" />
        </mxCell>
        <mxCell id="9K-uHqhrfBbbfJ-RC3fX-98" style="edgeStyle=orthogonalEdgeStyle;rounded=0;orthogonalLoop=1;jettySize=auto;html=1;exitX=0.5;exitY=1;exitDx=0;exitDy=0;entryX=0.5;entryY=0;entryDx=0;entryDy=0;" edge="1" parent="1" source="9K-uHqhrfBbbfJ-RC3fX-90" target="9K-uHqhrfBbbfJ-RC3fX-95">
          <mxGeometry relative="1" as="geometry" />
        </mxCell>
        <mxCell id="9K-uHqhrfBbbfJ-RC3fX-99" style="edgeStyle=orthogonalEdgeStyle;rounded=0;orthogonalLoop=1;jettySize=auto;html=1;entryX=0.5;entryY=0;entryDx=0;entryDy=0;" edge="1" parent="1" source="9K-uHqhrfBbbfJ-RC3fX-90" target="9K-uHqhrfBbbfJ-RC3fX-96">
          <mxGeometry relative="1" as="geometry" />
        </mxCell>
        <mxCell id="9K-uHqhrfBbbfJ-RC3fX-90" value="预约记录" style="whiteSpace=wrap;html=1;" vertex="1" parent="1">
          <mxGeometry x="590" y="690" width="120" height="60" as="geometry" />
        </mxCell>
        <mxCell id="9K-uHqhrfBbbfJ-RC3fX-112" style="edgeStyle=orthogonalEdgeStyle;rounded=0;orthogonalLoop=1;jettySize=auto;html=1;entryX=0.5;entryY=0;entryDx=0;entryDy=0;" edge="1" parent="1" source="9K-uHqhrfBbbfJ-RC3fX-93" target="9K-uHqhrfBbbfJ-RC3fX-109">
          <mxGeometry relative="1" as="geometry">
            <Array as="points">
              <mxPoint x="1720" y="770" />
              <mxPoint x="1570" y="770" />
            </Array>
          </mxGeometry>
        </mxCell>
        <mxCell id="9K-uHqhrfBbbfJ-RC3fX-113" style="edgeStyle=orthogonalEdgeStyle;rounded=0;orthogonalLoop=1;jettySize=auto;html=1;entryX=0.5;entryY=0;entryDx=0;entryDy=0;" edge="1" parent="1" source="9K-uHqhrfBbbfJ-RC3fX-93" target="9K-uHqhrfBbbfJ-RC3fX-110">
          <mxGeometry relative="1" as="geometry">
            <Array as="points">
              <mxPoint x="1720" y="770" />
              <mxPoint x="1690" y="770" />
            </Array>
          </mxGeometry>
        </mxCell>
        <mxCell id="9K-uHqhrfBbbfJ-RC3fX-114" style="edgeStyle=orthogonalEdgeStyle;rounded=0;orthogonalLoop=1;jettySize=auto;html=1;entryX=0.5;entryY=0;entryDx=0;entryDy=0;" edge="1" parent="1" source="9K-uHqhrfBbbfJ-RC3fX-93" target="9K-uHqhrfBbbfJ-RC3fX-111">
          <mxGeometry relative="1" as="geometry">
            <Array as="points">
              <mxPoint x="1720" y="770" />
              <mxPoint x="1880" y="770" />
            </Array>
          </mxGeometry>
        </mxCell>
        <mxCell id="9K-uHqhrfBbbfJ-RC3fX-93" value="访客记录" style="whiteSpace=wrap;html=1;" vertex="1" parent="1">
          <mxGeometry x="1660" y="680" width="120" height="60" as="geometry" />
        </mxCell>
        <mxCell id="9K-uHqhrfBbbfJ-RC3fX-95" value="详情" style="whiteSpace=wrap;html=1;" vertex="1" parent="1">
          <mxGeometry x="530" y="810" width="120" height="60" as="geometry" />
        </mxCell>
        <mxCell id="9K-uHqhrfBbbfJ-RC3fX-96" value="编辑" style="whiteSpace=wrap;html=1;" vertex="1" parent="1">
          <mxGeometry x="650" y="810" width="120" height="60" as="geometry" />
        </mxCell>
        <mxCell id="9K-uHqhrfBbbfJ-RC3fX-101" value="筛选查询" style="whiteSpace=wrap;html=1;" vertex="1" parent="1">
          <mxGeometry x="170" y="810" width="120" height="60" as="geometry" />
        </mxCell>
        <mxCell id="9K-uHqhrfBbbfJ-RC3fX-102" value="通过" style="whiteSpace=wrap;html=1;" vertex="1" parent="1">
          <mxGeometry x="280" y="810" width="120" height="60" as="geometry" />
        </mxCell>
        <mxCell id="9K-uHqhrfBbbfJ-RC3fX-104" value="不通过" style="whiteSpace=wrap;html=1;" vertex="1" parent="1">
          <mxGeometry x="390" y="810" width="120" height="60" as="geometry" />
        </mxCell>
        <mxCell id="9K-uHqhrfBbbfJ-RC3fX-109" value="筛选查询" style="whiteSpace=wrap;html=1;" vertex="1" parent="1">
          <mxGeometry x="1510" y="810" width="120" height="60" as="geometry" />
        </mxCell>
        <mxCell id="9K-uHqhrfBbbfJ-RC3fX-110" value="导出" style="whiteSpace=wrap;html=1;" vertex="1" parent="1">
          <mxGeometry x="1630" y="810" width="120" height="60" as="geometry" />
        </mxCell>
        <mxCell id="9K-uHqhrfBbbfJ-RC3fX-111" value="访客详情" style="whiteSpace=wrap;html=1;" vertex="1" parent="1">
          <mxGeometry x="1820" y="810" width="120" height="60" as="geometry" />
        </mxCell>
        <mxCell id="9K-uHqhrfBbbfJ-RC3fX-115" value="邀约" style="whiteSpace=wrap;html=1;" vertex="1" parent="1">
          <mxGeometry x="-10" y="810" width="120" height="60" as="geometry" />
        </mxCell>
        <mxCell id="9K-uHqhrfBbbfJ-RC3fX-119" style="edgeStyle=orthogonalEdgeStyle;rounded=0;orthogonalLoop=1;jettySize=auto;html=1;" edge="1" parent="1" source="9K-uHqhrfBbbfJ-RC3fX-118">
          <mxGeometry relative="1" as="geometry">
            <mxPoint x="900" y="799.9999999999998" as="targetPoint" />
          </mxGeometry>
        </mxCell>
        <mxCell id="9K-uHqhrfBbbfJ-RC3fX-129" style="edgeStyle=orthogonalEdgeStyle;rounded=0;orthogonalLoop=1;jettySize=auto;html=1;" edge="1" parent="1" source="9K-uHqhrfBbbfJ-RC3fX-118">
          <mxGeometry relative="1" as="geometry">
            <mxPoint x="1320" y="920" as="targetPoint" />
          </mxGeometry>
        </mxCell>
        <mxCell id="9K-uHqhrfBbbfJ-RC3fX-118" value="预约配置" style="whiteSpace=wrap;html=1;" vertex="1" parent="1">
          <mxGeometry x="900" y="660" width="120" height="60" as="geometry" />
        </mxCell>
        <mxCell id="9K-uHqhrfBbbfJ-RC3fX-124" value="" style="edgeStyle=orthogonalEdgeStyle;rounded=0;orthogonalLoop=1;jettySize=auto;html=1;" edge="1" parent="1" source="9K-uHqhrfBbbfJ-RC3fX-120" target="9K-uHqhrfBbbfJ-RC3fX-123">
          <mxGeometry relative="1" as="geometry" />
        </mxCell>
        <mxCell id="9K-uHqhrfBbbfJ-RC3fX-120" value="访客预约配置" style="whiteSpace=wrap;html=1;" vertex="1" parent="1">
          <mxGeometry x="830" y="790" width="120" height="60" as="geometry" />
        </mxCell>
        <mxCell id="9K-uHqhrfBbbfJ-RC3fX-126" value="" style="edgeStyle=orthogonalEdgeStyle;rounded=0;orthogonalLoop=1;jettySize=auto;html=1;" edge="1" parent="1" source="9K-uHqhrfBbbfJ-RC3fX-121" target="9K-uHqhrfBbbfJ-RC3fX-125">
          <mxGeometry relative="1" as="geometry" />
        </mxCell>
        <mxCell id="9K-uHqhrfBbbfJ-RC3fX-121" value="车辆预约配置" style="whiteSpace=wrap;html=1;" vertex="1" parent="1">
          <mxGeometry x="950" y="790" width="120" height="60" as="geometry" />
        </mxCell>
        <mxCell id="9K-uHqhrfBbbfJ-RC3fX-128" value="" style="edgeStyle=orthogonalEdgeStyle;rounded=0;orthogonalLoop=1;jettySize=auto;html=1;" edge="1" parent="1" source="9K-uHqhrfBbbfJ-RC3fX-122" target="9K-uHqhrfBbbfJ-RC3fX-127">
          <mxGeometry relative="1" as="geometry" />
        </mxCell>
        <mxCell id="9K-uHqhrfBbbfJ-RC3fX-122" value="施工预约配置" style="whiteSpace=wrap;html=1;" vertex="1" parent="1">
          <mxGeometry x="1070" y="790" width="120" height="60" as="geometry" />
        </mxCell>
        <mxCell id="9K-uHqhrfBbbfJ-RC3fX-123" value="访客填写信息&lt;br&gt;的项配置" style="whiteSpace=wrap;html=1;" vertex="1" parent="1">
          <mxGeometry x="830" y="930" width="120" height="60" as="geometry" />
        </mxCell>
        <mxCell id="9K-uHqhrfBbbfJ-RC3fX-125" value="车辆预约填写的信息项配置" style="whiteSpace=wrap;html=1;" vertex="1" parent="1">
          <mxGeometry x="950" y="930" width="120" height="60" as="geometry" />
        </mxCell>
        <mxCell id="9K-uHqhrfBbbfJ-RC3fX-127" value="施工预约填写信息项配置" style="whiteSpace=wrap;html=1;" vertex="1" parent="1">
          <mxGeometry x="1070" y="930" width="120" height="60" as="geometry" />
        </mxCell>
        <mxCell id="9K-uHqhrfBbbfJ-RC3fX-134" value="" style="edgeStyle=orthogonalEdgeStyle;rounded=0;orthogonalLoop=1;jettySize=auto;html=1;" edge="1" parent="1" source="9K-uHqhrfBbbfJ-RC3fX-130" target="9K-uHqhrfBbbfJ-RC3fX-133">
          <mxGeometry relative="1" as="geometry" />
        </mxCell>
        <mxCell id="9K-uHqhrfBbbfJ-RC3fX-130" value="客户端页面配置（访客预约端）" style="whiteSpace=wrap;html=1;" vertex="1" parent="1">
          <mxGeometry x="1260" y="920" width="120" height="60" as="geometry" />
        </mxCell>
        <mxCell id="9K-uHqhrfBbbfJ-RC3fX-133" value="比如说配置填写健康信息的那个页面是否显示" style="shape=process;whiteSpace=wrap;html=1;backgroundOutline=1;" vertex="1" parent="1">
          <mxGeometry x="1260" y="1060" width="120" height="60" as="geometry" />
        </mxCell>
      </root>
    </mxGraphModel>
  </diagram>
</mxfile>
